<?xml version="1.0" standalone="no"?>
<!DOCTYPE svg PUBLIC "-//W3C//DTD SVG 20010904//EN"
 "http://www.w3.org/TR/2001/REC-SVG-20010904/DTD/svg10.dtd">
<svg version="1.0" xmlns="http://www.w3.org/2000/svg"
 width="5000.000000pt" height="1686.000000pt" viewBox="0 0 5000.000000 1686.000000"
 preserveAspectRatio="xMidYMid meet">
<metadata>
Created by potrace 1.16, written by Peter Selinger 2001-2019
</metadata>
<g transform="translate(0.000000,1686.000000) scale(0.100000,-0.100000)"
fill="#000000" stroke="none">
<path d="M25910 14824 c-837 -74 -1373 -469 -1608 -1184 -177 -536 -176 -1297
1 -1840 147 -450 438 -796 832 -990 303 -149 573 -204 995 -203 335 0 548 33
805 124 418 147 765 473 945 888 126 290 187 599 197 1006 19 732 -152 1293
-508 1669 -271 286 -593 443 -1054 512 -96 15 -507 27 -605 18z m356 -735
c621 -69 918 -557 891 -1464 -19 -630 -194 -1002 -554 -1184 -216 -108 -549
-131 -813 -54 -441 127 -671 536 -697 1233 -16 442 64 827 223 1072 193 299
538 443 950 397z"/>
<path d="M21420 14805 c-319 -46 -610 -158 -840 -322 -393 -281 -649 -743
-742 -1334 -19 -126 -22 -182 -22 -454 0 -335 10 -451 60 -688 149 -706 569
-1176 1194 -1336 200 -51 329 -65 590 -65 393 0 709 52 1030 171 l100 37 0
368 c0 202 -3 368 -6 368 -4 0 -70 -21 -148 -46 -564 -182 -1030 -215 -1323
-93 -384 160 -575 540 -599 1194 -26 686 185 1188 581 1385 156 78 226 93 435
94 135 1 194 -3 259 -18 116 -25 311 -93 493 -172 84 -36 158 -68 165 -71 7
-3 63 127 153 353 77 196 139 358 137 360 -8 8 -241 105 -322 134 -122 43
-325 95 -470 121 -155 28 -576 36 -725 14z"/>
<path d="M44690 14814 c-407 -47 -687 -131 -953 -287 -291 -172 -542 -446
-691 -757 -145 -302 -209 -623 -209 -1055 -1 -260 11 -407 48 -611 158 -859
677 -1372 1497 -1478 359 -47 851 -21 1293 69 150 30 430 104 508 134 l27 11
-2 1062 -3 1063 -817 3 -818 2 0 -365 0 -365 390 0 390 0 0 -424 0 -424 -62
-11 c-35 -6 -92 -16 -128 -22 -36 -6 -164 -13 -285 -16 -199 -4 -230 -3 -325
17 -466 96 -732 451 -801 1068 -15 140 -7 499 15 617 69 374 250 667 528 856
368 250 956 253 1521 8 50 -21 94 -36 98 -32 17 18 288 688 281 695 -13 13
-220 89 -352 128 -129 39 -260 68 -435 96 -95 15 -622 29 -715 18z"/>
<path d="M29740 12714 l0 -2055 753 4 c811 4 837 6 1114 63 808 166 1330 672
1486 1444 42 204 52 317 51 585 0 277 -13 400 -64 612 -149 620 -568 1073
-1176 1272 -342 112 -560 131 -1531 131 l-633 0 0 -2056z m1612 1307 c425 -73
692 -311 812 -724 101 -349 95 -843 -14 -1178 -105 -321 -329 -552 -635 -654
-177 -60 -234 -67 -577 -72 l-318 -5 0 1326 0 1326 309 0 c260 0 327 -3 423
-19z"/>
<path d="M34810 12715 l0 -2055 440 0 440 0 0 2055 0 2055 -440 0 -440 0 0
-2055z"/>
<path d="M37530 12715 l0 -2055 391 0 390 0 -4 1238 c-4 1208 -9 1446 -42
1800 -3 34 -2 62 3 62 4 0 408 -696 898 -1547 l890 -1548 557 -3 557 -2 0
2055 0 2055 -396 0 -396 0 5 -1217 c4 -937 8 -1284 21 -1503 8 -157 15 -301
15 -320 0 -34 0 -35 -15 -13 -9 12 -410 703 -893 1535 l-877 1513 -552 3 -552
2 0 -2055z"/>
<path d="M2800 8517 l0 -4922 3783 -1259 c2080 -692 3788 -1261 3795 -1263 9
-4 12 194 12 970 0 535 3 1669 7 2519 l6 1545 416 158 c1961 742 4097 1583
5316 2092 416 173 519 205 725 221 l94 7 -350 78 c-192 42 -357 77 -366 77 -9
0 -247 -92 -530 -204 -1058 -421 -2870 -1124 -4803 -1864 -258 -99 -479 -184
-489 -188 -18 -7 -19 45 -14 2499 3 1379 3 2507 1 2507 -2 0 -178 45 -391 100
-213 54 -1917 491 -3787 970 -1870 479 -3406 872 -3412 875 -10 3 -13 -984
-13 -4918z"/>
<path d="M30440 9384 c-19 -2 -78 -9 -130 -15 -664 -75 -1161 -423 -1409 -986
-85 -193 -153 -465 -183 -723 -19 -170 -16 -631 6 -795 52 -400 153 -694 330
-960 270 -404 685 -645 1243 -721 175 -24 540 -24 712 0 434 59 758 203 1020
452 314 298 495 700 563 1244 17 141 17 649 0 795 -49 407 -158 722 -346 1000
-83 124 -283 322 -406 404 -228 151 -500 248 -815 291 -81 11 -520 22 -585 14z
m367 -735 c127 -14 247 -50 357 -106 75 -39 108 -64 186 -143 221 -223 322
-531 337 -1030 27 -913 -275 -1399 -908 -1462 -217 -22 -436 13 -604 97 -349
174 -527 554 -552 1175 -13 352 41 699 147 936 177 393 554 587 1037 533z"/>
<path d="M36000 9379 c-861 -46 -1480 -560 -1695 -1409 -126 -499 -104 -1186
55 -1659 94 -279 227 -498 415 -686 344 -342 856 -498 1490 -456 333 22 566
69 853 173 l82 30 0 369 c0 203 -3 369 -7 369 -3 0 -70 -21 -147 -46 -174 -57
-367 -106 -534 -136 -169 -30 -526 -33 -636 -5 -410 104 -637 396 -723 931
-14 89 -18 170 -18 406 0 260 3 309 22 415 60 327 165 552 342 725 94 92 173
144 293 190 202 78 472 80 733 5 94 -27 365 -132 475 -184 35 -17 68 -27 72
-23 8 9 278 686 278 699 0 17 -192 100 -361 156 -217 73 -460 123 -643 132
-55 3 -126 7 -156 9 -30 1 -116 -1 -190 -5z"/>
<path d="M44804 9379 c-383 -22 -701 -148 -919 -364 -136 -135 -218 -279 -273
-484 -24 -89 -26 -112 -26 -311 0 -202 2 -221 27 -313 72 -266 268 -521 534
-697 59 -39 278 -156 485 -261 208 -104 411 -212 452 -240 106 -71 188 -156
228 -237 29 -59 33 -76 33 -152 0 -55 -6 -104 -18 -140 -66 -202 -291 -304
-632 -287 -310 16 -621 102 -1083 301 l-82 35 2 -412 3 -412 85 -37 c466 -201
1101 -261 1599 -151 503 111 845 405 950 818 53 210 54 440 0 649 -44 175
-132 326 -266 459 -163 161 -340 274 -743 473 -394 195 -497 254 -586 337 -95
88 -126 149 -132 259 -6 104 10 173 57 245 79 122 207 182 404 191 254 11 545
-54 914 -203 48 -19 90 -32 93 -28 7 9 280 667 280 675 0 11 -307 127 -453
172 -314 98 -607 134 -933 115z"/>
<path d="M19990 7276 l0 -2056 844 0 c994 0 1074 5 1344 86 472 142 765 450
843 884 19 108 17 373 -5 483 -38 199 -110 344 -225 457 -110 108 -255 187
-418 227 -69 17 -89 29 -60 37 185 49 266 93 372 200 181 184 253 405 242 740
-3 116 -10 182 -25 237 -94 352 -336 562 -769 668 -300 73 -437 82 -1350 88
l-793 5 0 -2056z m1669 1300 c134 -31 200 -64 268 -131 53 -53 64 -71 83 -134
19 -62 22 -89 18 -174 -10 -197 -82 -305 -247 -372 -115 -47 -209 -57 -573
-62 l-338 -5 0 452 0 452 358 -5 c290 -3 371 -7 431 -21z m-13 -1591 c177 -31
275 -77 363 -171 83 -88 103 -145 109 -299 3 -91 0 -136 -13 -184 -47 -184
-164 -293 -376 -353 -68 -20 -105 -22 -466 -25 l-393 -4 0 525 0 526 344 0
c262 0 364 -4 432 -15z"/>
<path d="M24800 7275 l0 -2055 1270 0 1270 0 0 365 0 365 -830 0 -830 0 0
1690 0 1690 -440 0 -440 0 0 -2055z"/>
<path d="M39020 7275 l0 -2055 435 0 435 0 0 729 0 730 173 124 c94 68 177
127 183 130 6 4 226 -341 545 -853 l534 -860 498 0 c273 0 497 2 497 5 0 3
-322 516 -716 1140 -394 625 -714 1142 -711 1148 3 7 322 415 711 907 388 492
706 898 706 903 0 4 -219 6 -487 5 l-486 -3 -554 -695 c-315 -395 -627 -798
-724 -934 l-169 -238 0 936 0 936 -435 0 -435 0 0 -2055z"/>
<path d="M23260 3814 l0 -296 -39 31 c-155 123 -421 130 -587 16 -91 -63 -156
-163 -196 -302 -19 -67 -22 -102 -23 -248 0 -186 15 -267 71 -378 34 -66 121
-157 182 -190 172 -94 452 -68 566 52 17 17 33 31 36 31 4 0 10 -23 13 -50 3
-28 9 -55 12 -60 3 -6 46 -10 96 -10 l89 0 0 850 0 850 -110 0 -110 0 0 -296z
m-189 -389 c131 -47 183 -168 183 -430 0 -116 -3 -152 -22 -210 -39 -128 -112
-183 -254 -193 -138 -9 -220 31 -275 134 -66 125 -78 345 -29 509 33 107 112
187 205 206 47 10 140 2 192 -16z"/>
<path d="M20385 4029 c-96 -12 -224 -54 -302 -100 -32 -19 -90 -67 -130 -107
-60 -59 -82 -91 -122 -175 -27 -56 -57 -132 -66 -169 -25 -106 -35 -259 -24
-386 31 -360 199 -588 496 -674 69 -20 100 -23 263 -23 156 1 199 4 273 23
135 34 128 26 125 140 -4 114 8 109 -153 72 -144 -33 -333 -34 -427 -2 -158
55 -259 167 -309 345 -31 109 -34 345 -6 447 57 210 194 351 375 389 121 25
302 5 425 -48 27 -12 54 -21 61 -21 16 0 101 174 93 192 -7 19 -124 62 -218
82 -100 20 -257 26 -354 15z"/>
<path d="M38965 4034 c-153 -21 -247 -58 -321 -125 -88 -82 -124 -168 -124
-298 0 -234 110 -360 415 -477 152 -59 252 -108 289 -142 107 -100 79 -284
-54 -352 -117 -59 -362 -51 -566 19 -44 15 -86 25 -92 23 -8 -2 -12 -36 -12
-108 l0 -105 45 -20 c76 -34 173 -50 335 -56 186 -7 286 9 397 61 181 86 273
259 244 460 -27 187 -131 287 -416 396 -165 64 -208 84 -259 120 -148 107
-116 324 56 375 105 31 292 13 437 -41 36 -14 70 -23 76 -20 7 2 26 46 44 97
30 85 31 94 16 105 -23 17 -169 61 -240 73 -72 12 -228 21 -270 15z"/>
<path d="M25410 3989 c0 -11 114 -230 253 -487 l252 -467 5 -310 5 -310 115 0
115 0 5 315 5 315 253 462 c138 255 252 472 252 483 0 19 -6 20 -118 20 l-118
0 -195 -365 c-106 -201 -197 -365 -200 -365 -3 0 -92 164 -198 365 l-193 365
-119 0 c-114 0 -119 -1 -119 -21z"/>
<path d="M30646 4002 c-5 -9 395 -1526 414 -1570 10 -22 14 -23 116 -20 l107
3 174 595 c192 656 184 629 189 615 1 -5 80 -266 174 -580 94 -313 176 -585
181 -602 l11 -33 108 0 109 0 15 53 c45 158 406 1518 406 1531 0 14 -18 16
-119 16 l-118 0 -31 -117 c-17 -65 -85 -332 -151 -593 -66 -261 -122 -468
-124 -460 -3 8 -12 44 -21 80 -9 36 -87 296 -173 578 l-157 512 -118 0 c-65 0
-118 -2 -118 -4 0 -2 -69 -239 -154 -527 -85 -288 -160 -550 -166 -582 -7 -31
-15 -55 -17 -53 -3 2 -58 215 -123 473 -66 257 -132 518 -148 578 l-29 110
-116 3 c-63 1 -118 -1 -121 -6z"/>
<path d="M35476 3994 c-11 -29 -7 -169 6 -182 9 -9 78 -12 250 -12 l238 0 0
-695 0 -696 113 3 112 3 3 692 2 693 243 2 242 3 3 103 3 102 -605 0 c-541 0
-604 -2 -610 -16z"/>
<path d="M21555 3639 c-128 -20 -223 -68 -302 -153 -108 -116 -153 -253 -153
-467 0 -212 52 -362 165 -475 103 -104 231 -154 395 -154 270 0 462 147 531
407 30 111 30 325 0 436 -67 251 -241 396 -493 411 -45 3 -110 1 -143 -5z
m251 -227 c60 -31 119 -103 144 -175 31 -87 39 -284 16 -381 -45 -189 -153
-275 -336 -264 -139 8 -228 81 -273 222 -18 59 -22 95 -22 206 0 166 23 252
87 325 68 77 117 95 248 92 74 -3 104 -8 136 -25z"/>
<path d="M24185 3640 c-118 -21 -196 -62 -276 -147 -114 -119 -161 -260 -162
-478 -1 -160 12 -227 67 -340 69 -140 217 -248 378 -275 152 -26 380 0 496 57
l37 18 3 93 c2 73 0 93 -12 98 -8 3 -57 -8 -110 -25 -356 -114 -588 -13 -623
271 l-6 48 399 2 399 3 3 88 c9 285 -111 494 -325 566 -69 23 -198 33 -268 21z
m205 -216 c76 -30 123 -108 145 -236 l6 -38 -279 0 -280 0 10 42 c22 98 82
188 150 224 69 36 170 39 248 8z"/>
<path d="M27092 3639 c-226 -34 -377 -179 -433 -417 -18 -74 -20 -109 -17
-232 4 -129 8 -155 34 -230 85 -243 265 -370 524 -370 271 0 461 145 532 407
31 115 31 327 -1 438 -57 201 -180 336 -359 388 -68 21 -201 28 -280 16z m254
-226 c118 -62 174 -190 174 -396 -1 -294 -119 -438 -350 -425 -180 10 -280
134 -297 367 -15 213 49 389 162 448 53 28 78 32 175 30 73 -3 104 -8 136 -24z"/>
<path d="M29830 3640 c-73 -16 -149 -59 -210 -120 l-58 -58 -6 46 c-3 24 -6
58 -6 73 0 18 -7 32 -19 39 -23 12 -150 13 -169 2 -10 -7 -12 -135 -10 -608
l3 -599 110 0 110 0 5 380 5 380 27 57 c35 75 98 142 164 174 50 25 62 26 162
23 l107 -4 12 75 c18 113 17 127 -9 133 -47 12 -175 16 -218 7z"/>
<path d="M37085 3639 c-219 -34 -371 -173 -431 -394 -25 -94 -30 -294 -10
-396 58 -289 260 -459 546 -459 272 0 465 147 536 410 25 93 25 339 0 430 -56
202 -184 341 -364 394 -68 20 -201 27 -277 15z m263 -234 c61 -33 103 -85 134
-165 30 -77 37 -293 14 -395 -40 -169 -145 -255 -312 -255 -115 0 -217 58
-264 150 -67 130 -75 365 -19 515 32 86 97 149 179 176 14 5 68 7 120 6 83 -2
102 -6 148 -32z"/>
<path d="M41495 3639 c-228 -33 -390 -190 -440 -424 -22 -107 -20 -323 5 -421
55 -218 200 -359 404 -395 138 -24 376 5 434 53 14 12 17 194 3 203 -5 3 -43
-6 -83 -19 -218 -73 -390 -46 -472 73 -52 74 -69 151 -70 301 -1 114 3 146 22
207 29 95 73 150 147 188 54 27 67 30 154 29 75 -1 114 -7 176 -27 94 -31 89
-34 129 79 21 59 25 79 15 90 -17 20 -126 52 -221 64 -93 11 -118 11 -203 -1z"/>
<path d="M42535 3640 c-129 -18 -248 -79 -321 -164 -45 -52 -99 -162 -121
-246 -25 -92 -24 -349 1 -440 29 -108 73 -186 139 -254 69 -70 138 -107 244
-132 134 -32 405 -1 458 52 20 21 22 176 2 193 -11 8 -32 5 -87 -14 -195 -66
-363 -48 -448 50 -74 83 -95 171 -90 360 4 113 9 151 27 196 29 76 88 141 153
170 74 33 200 32 315 -3 45 -14 86 -22 91 -19 12 8 62 147 62 172 0 52 -266
101 -425 79z"/>
<path d="M43550 3640 c-117 -19 -209 -68 -284 -151 -59 -65 -90 -120 -122
-215 -36 -106 -46 -329 -19 -448 50 -226 195 -373 414 -422 141 -32 372 -9
514 51 l37 15 0 100 c0 115 -1 115 -87 81 -136 -53 -341 -70 -440 -37 -68 23
-145 92 -177 159 -20 43 -46 144 -46 179 0 4 179 9 398 10 l397 3 3 110 c6
226 -68 397 -215 494 -91 60 -250 91 -373 71z m210 -220 c73 -38 122 -117 136
-217 l7 -53 -278 0 -277 0 7 38 c16 91 74 181 142 223 66 41 192 45 263 9z"/>
<path d="M44669 3640 c-132 -17 -236 -69 -296 -148 -40 -53 -53 -98 -53 -187
0 -163 90 -250 370 -359 219 -85 286 -139 277 -224 -10 -91 -90 -132 -256
-132 -110 0 -191 17 -297 61 -40 17 -78 28 -84 24 -6 -3 -10 -48 -10 -105 l0
-100 38 -19 c69 -35 154 -52 292 -58 266 -11 430 54 508 201 24 46 27 61 27
156 0 96 -2 109 -27 151 -54 92 -131 142 -348 226 -141 54 -225 98 -251 131
-27 35 -26 102 4 130 44 41 95 55 202 55 80 -1 118 -7 190 -29 141 -43 141
-43 182 49 19 43 32 85 29 92 -7 21 -179 72 -281 84 -98 12 -131 12 -216 1z"/>
<path d="M45702 3640 c-223 -31 -346 -149 -346 -330 1 -171 85 -253 373 -364
122 -47 227 -103 251 -133 50 -64 28 -150 -50 -193 -39 -21 -61 -25 -155 -28
-124 -4 -201 10 -322 58 -41 17 -79 28 -84 24 -5 -3 -9 -50 -9 -104 l0 -100
38 -19 c71 -36 154 -52 297 -58 269 -10 429 55 502 205 25 50 28 68 28 152 0
83 -3 101 -27 145 -50 96 -122 142 -367 240 -185 73 -244 111 -255 166 -8 40
15 90 53 112 15 9 60 22 99 28 84 14 218 -5 325 -45 35 -13 69 -21 75 -17 17
10 81 162 75 177 -5 14 -127 56 -209 73 -77 15 -221 21 -292 11z"/>
<path d="M33052 3625 c-101 -23 -226 -77 -230 -99 -5 -25 47 -156 64 -163 7
-2 48 9 91 26 112 43 158 54 243 54 94 1 157 -24 189 -76 20 -33 52 -190 40
-201 -2 -3 -83 -9 -179 -15 -299 -18 -453 -76 -531 -199 -39 -62 -51 -111 -50
-208 0 -111 28 -182 95 -250 70 -69 139 -95 271 -102 159 -7 264 24 357 107
25 22 48 41 51 41 3 0 8 -21 12 -47 12 -82 15 -84 108 -81 l82 3 0 475 0 475
-24 60 c-32 81 -106 154 -186 185 -50 20 -82 24 -200 26 -95 2 -160 -2 -203
-11z m386 -737 c-8 -150 -63 -232 -185 -278 -78 -29 -217 -26 -259 6 -53 39
-69 70 -69 137 0 159 121 218 454 226 l64 1 -5 -92z"/>
<path d="M28012 3618 c-16 -16 -17 -802 -1 -898 35 -221 180 -330 437 -330
136 0 255 39 330 109 17 16 32 29 33 28 0 -1 6 -27 12 -57 l12 -55 95 0 95 0
3 594 c1 430 -1 598 -9 607 -12 15 -184 20 -206 6 -8 -5 -13 -112 -15 -392 -4
-336 -7 -392 -22 -440 -43 -132 -123 -190 -270 -198 -98 -5 -155 9 -200 49
-70 61 -71 64 -74 544 -2 320 -6 431 -15 437 -20 13 -192 9 -205 -4z"/>
<path d="M33813 3623 c-7 -2 -13 -12 -13 -21 0 -9 104 -277 231 -595 l232
-579 -38 -96 c-82 -208 -132 -247 -310 -241 l-100 4 -3 -86 c-4 -115 -6 -114
167 -114 134 0 138 1 203 33 77 38 141 103 193 196 33 59 565 1453 565 1480 0
8 -7 17 -16 20 -22 9 -197 7 -210 -2 -11 -6 -186 -481 -291 -791 l-46 -134
-52 149 c-67 194 -283 755 -297 771 -10 13 -187 18 -215 6z"/>
<path d="M39762 3618 c-15 -15 -17 -788 -2 -892 33 -224 179 -336 438 -336
135 0 247 37 332 109 l35 30 10 -57 10 -57 95 0 95 0 3 594 c1 430 -1 598 -9
607 -13 15 -184 20 -206 6 -9 -5 -13 -110 -15 -392 -3 -361 -5 -389 -25 -448
-28 -84 -62 -125 -129 -158 -66 -32 -190 -44 -262 -25 -54 15 -105 60 -128
114 -17 38 -19 80 -22 472 -2 318 -6 432 -15 437 -20 13 -192 9 -205 -4z"/>
</g>
</svg>
