<?xml version="1.0" encoding="UTF-8"?>
<!DOCTYPE svg PUBLIC "-//W3C//DTD SVG 1.1//EN" "http://www.w3.org/Graphics/SVG/1.1/DTD/svg11.dtd">
<!-- Creator: CorelDRAW X7 -->
<svg xmlns="http://www.w3.org/2000/svg" xml:space="preserve" width="200mm" height="75mm" version="1.1" style="shape-rendering:geometricPrecision; text-rendering:geometricPrecision; image-rendering:optimizeQuality; fill-rule:evenodd; clip-rule:evenodd"
viewBox="0 0 20000 7500"
 xmlns:xlink="http://www.w3.org/1999/xlink">
 <defs>
  <style type="text/css">
   <![CDATA[
    .fil13 {fill:none}
    .fil61 {fill:#0290CC}
    .fil0 {fill:#0597D8}
    .fil2 {fill:#0793D7}
    .fil1 {fill:#0893D7}
    .fil3 {fill:#1093D1}
    .fil65 {fill:#14759B}
    .fil12 {fill:#1599CC}
    .fil39 {fill:#1690CD}
    .fil32 {fill:#1892CB}
    .fil38 {fill:#248CBC}
    .fil64 {fill:#25748A}
    .fil37 {fill:#2990BE}
    .fil33 {fill:#2B94BC}
    .fil4 {fill:#2D92BB}
    .fil31 {fill:#2E91BB}
    .fil36 {fill:#3890B2}
    .fil11 {fill:#3A96B0}
    .fil30 {fill:#4092AC}
    .fil35 {fill:#4590A9}
    .fil34 {fill:#4891A7}
    .fil18 {fill:#4991A5}
    .fil52 {fill:#4995A6}
    .fil19 {fill:#4C91A3}
    .fil28 {fill:#52939E}
    .fil29 {fill:#54929D}
    .fil5 {fill:#55929C}
    .fil26 {fill:#589299}
    .fil25 {fill:#5D9296}
    .fil58 {fill:#629991}
    .fil24 {fill:#639391}
    .fil20 {fill:#659390}
    .fil10 {fill:#6A958B}
    .fil15 {fill:#6C948B}
    .fil27 {fill:#6F9488}
    .fil14 {fill:#709488}
    .fil23 {fill:#729486}
    .fil6 {fill:#739485}
    .fil63 {fill:#759A82}
    .fil51 {fill:#779581}
    .fil22 {fill:#7A957F}
    .fil50 {fill:#7F957B}
    .fil21 {fill:#80957B}
    .fil57 {fill:#839678}
    .fil56 {fill:#878860}
    .fil17 {fill:#889675}
    .fil49 {fill:#8D9671}
    .fil16 {fill:#8E9670}
    .fil9 {fill:#8F976F}
    .fil48 {fill:#92966D}
    .fil8 {fill:#94966B}
    .fil7 {fill:#95966A}
    .fil47 {fill:#979669}
    .fil55 {fill:#9B9766}
    .fil42 {fill:#9D9765}
    .fil54 {fill:#A09762}
    .fil41 {fill:#A6975E}
    .fil40 {fill:#AB9759}
    .fil43 {fill:#AD9758}
    .fil53 {fill:#AE9757}
    .fil46 {fill:#B39853}
    .fil62 {fill:#B49853}
    .fil44 {fill:#B89850}
    .fil45 {fill:#BF984A}
    .fil60 {fill:#C09849}
    .fil59 {fill:#C39847}
    .fil66 {fill:#1189D2;fill-rule:nonzero}
   ]]>
  </style>
 </defs>
 <g id="Layer_x0020_1">
  <metadata id="CorelCorpID_0Corel-Layer"/>
  <g id="_301535848">
   <circle class="fil0" cx="15317" cy="746" r="230"/>
   <circle class="fil1" cx="15770" cy="1013" r="228"/>
   <circle class="fil2" cx="16195" cy="1319" r="228"/>
   <circle class="fil3" cx="16621" cy="1737" r="201"/>
   <circle class="fil4" cx="16922" cy="2147" r="193"/>
   <circle class="fil5" cx="17137" cy="2557" r="182"/>
   <circle class="fil6" cx="16450" cy="2447" r="176"/>
   <circle class="fil7" cx="15766" cy="2410" r="176"/>
   <circle class="fil8" cx="16060" cy="2797" r="176"/>
   <circle class="fil9" cx="15468" cy="2108" r="176"/>
   <circle class="fil10" cx="16157" cy="2038" r="176"/>
   <circle class="fil11" cx="15842" cy="1700" r="198"/>
   <circle class="fil0" cx="15406" cy="1416" r="198"/>
   <circle class="fil0" cx="14965" cy="1191" r="225"/>
   <circle class="fil0" cx="14491" cy="1021" r="197"/>
   <circle class="fil12" cx="15077" cy="1830" r="176"/>
   <circle class="fil12" cx="14670" cy="1616" r="167"/>
   <circle class="fil12" cx="14320" cy="1507" r="134"/>
   <circle class="fil0" cx="14777" cy="530" r="230"/>
   <circle class="fil0" cx="14218" cy="421" r="230"/>
   <circle class="fil0" cx="13641" cy="398" r="230"/>
   <circle class="fil1" cx="13101" cy="422" r="230"/>
   <circle class="fil1" cx="12602" cy="549" r="182"/>
   <circle class="fil0" cx="14007" cy="932" r="178"/>
   <circle class="fil0" cx="13561" cy="909" r="174"/>
   <circle class="fil0" cx="13180" cy="909" r="140"/>
   <circle class="fil0" cx="12849" cy="971" r="124"/>
   <circle class="fil1" cx="12168" cy="708" r="143"/>
   <circle class="fil1" cx="11849" cy="837" r="122"/>
   <circle class="fil1" cx="11540" cy="1020" r="100"/>
   <circle class="fil1" cx="11302" cy="1207" r="89"/>
   <circle class="fil13" cx="11079" cy="1396" r="66"/>
   <circle class="fil13" cx="11079" cy="1396" r="66"/>
   <circle class="fil13" cx="11079" cy="1396" r="66"/>
   <circle class="fil0" cx="11079" cy="1396" r="66"/>
   <circle class="fil0" cx="12551" cy="1044" r="100"/>
   <circle class="fil0" cx="12288" cy="1156" r="89"/>
   <circle class="fil0" cx="12057" cy="1258" r="66"/>
   <circle class="fil12" cx="13953" cy="1429" r="111"/>
   <circle class="fil12" cx="13657" cy="1381" r="103"/>
   <circle class="fil12" cx="13397" cy="1355" r="87"/>
   <circle class="fil12" cx="13140" cy="1375" r="55"/>
   <circle class="fil12" cx="12932" cy="1397" r="55"/>
   <circle class="fil12" cx="12743" cy="1434" r="45"/>
   <circle class="fil12" cx="12567" cy="1489" r="32"/>
   <circle class="fil12" cx="12418" cy="1545" r="27"/>
   <circle class="fil12" cx="12302" cy="1593" r="21"/>
   <circle class="fil12" cx="12179" cy="1655" r="14"/>
   <circle class="fil12" cx="12048" cy="1721" r="12"/>
   <circle class="fil14" cx="16692" cy="2869" r="169"/>
   <circle class="fil15" cx="16833" cy="3301" r="144"/>
   <circle class="fil16" cx="16259" cy="3183" r="165"/>
   <circle class="fil17" cx="16413" cy="3578" r="154"/>
   <circle class="fil18" cx="17324" cy="2992" r="164"/>
   <circle class="fil19" cx="17446" cy="3378" r="140"/>
   <circle class="fil20" cx="16956" cy="3714" r="136"/>
   <circle class="fil21" cx="16486" cy="4007" r="145"/>
   <circle class="fil22" cx="16519" cy="4435" r="126"/>
   <circle class="fil23" cx="16498" cy="4820" r="112"/>
   <circle class="fil24" cx="17008" cy="4139" r="124"/>
   <circle class="fil24" cx="17008" cy="4483" r="124"/>
   <circle class="fil25" cx="16985" cy="4792" r="101"/>
   <circle class="fil26" cx="16905" cy="5095" r="101"/>
   <circle class="fil27" cx="16451" cy="5182" r="108"/>
   <circle class="fil27" cx="16336" cy="5482" r="84"/>
   <circle class="fil28" cx="16224" cy="5754" r="72"/>
   <circle class="fil29" cx="16842" cy="5357" r="89"/>
   <circle class="fil30" cx="16754" cy="5595" r="78"/>
   <circle class="fil31" cx="16664" cy="5829" r="66"/>
   <circle class="fil32" cx="16554" cy="6030" r="60"/>
   <circle class="fil33" cx="16091" cy="5973" r="72"/>
   <circle class="fil32" cx="15961" cy="6198" r="61"/>
   <circle class="fil32" cx="15831" cy="6378" r="54"/>
   <circle class="fil32" cx="16440" cy="6186" r="49"/>
   <circle class="fil32" cx="16332" cy="6341" r="37"/>
   <circle class="fil32" cx="16227" cy="6460" r="30"/>
   <circle class="fil32" cx="16132" cy="6571" r="24"/>
   <circle class="fil32" cx="16058" cy="6665" r="24"/>
   <circle class="fil32" cx="15972" cy="6742" r="19"/>
   <circle class="fil32" cx="15894" cy="6811" r="16"/>
   <circle class="fil32" cx="15835" cy="6879" r="11"/>
   <circle class="fil19" cx="17499" cy="3732" r="126"/>
   <circle class="fil34" cx="17538" cy="4073" r="107"/>
   <circle class="fil35" cx="17530" cy="4389" r="99"/>
   <circle class="fil35" cx="17512" cy="4675" r="73"/>
   <circle class="fil36" cx="17467" cy="4957" r="75"/>
   <circle class="fil37" cx="17421" cy="5207" r="63"/>
   <circle class="fil38" cx="17342" cy="5413" r="60"/>
   <circle class="fil39" cx="17269" cy="5621" r="50"/>
   <circle class="fil39" cx="17196" cy="5779" r="41"/>
   <circle class="fil39" cx="17123" cy="5937" r="36"/>
   <circle class="fil39" cx="17047" cy="6082" r="28"/>
   <circle class="fil39" cx="16986" cy="6204" r="24"/>
   <circle class="fil39" cx="16935" cy="6279" r="17"/>
   <circle class="fil39" cx="16900" cy="6367" r="17"/>
   <circle class="fil39" cx="16857" cy="6445" r="13"/>
   <circle class="fil32" cx="16804" cy="6505" r="13"/>
   <circle class="fil40" cx="15600" cy="2989" r="148"/>
   <circle class="fil41" cx="15796" cy="3344" r="148"/>
   <circle class="fil42" cx="15974" cy="3715" r="148"/>
   <circle class="fil43" cx="15364" cy="2649" r="138"/>
   <circle class="fil44" cx="15459" cy="3483" r="135"/>
   <circle class="fil45" cx="15325" cy="3199" r="132"/>
   <circle class="fil46" cx="15602" cy="3835" r="149"/>
   <circle class="fil47" cx="16020" cy="4114" r="148"/>
   <circle class="fil48" cx="16020" cy="4501" r="148"/>
   <circle class="fil49" cx="15998" cy="4879" r="125"/>
   <circle class="fil50" cx="15930" cy="5244" r="117"/>
   <circle class="fil51" cx="15822" cy="5573" r="113"/>
   <circle class="fil52" cx="15672" cy="5838" r="103"/>
   <circle class="fil32" cx="15514" cy="6107" r="92"/>
   <circle class="fil32" cx="15343" cy="6298" r="79"/>
   <circle class="fil32" cx="15168" cy="6475" r="72"/>
   <circle class="fil32" cx="15010" cy="6613" r="61"/>
   <circle class="fil32" cx="14846" cy="6735" r="51"/>
   <circle class="fil32" cx="14677" cy="6830" r="40"/>
   <circle class="fil32" cx="14522" cy="6932" r="37"/>
   <circle class="fil32" cx="14370" cy="6986" r="26"/>
   <circle class="fil32" cx="14221" cy="7048" r="24"/>
   <circle class="fil32" cx="14111" cy="7082" r="20"/>
   <circle class="fil32" cx="13999" cy="7110" r="16"/>
   <circle class="fil32" cx="13895" cy="7138" r="14"/>
   <circle class="fil32" cx="13788" cy="7154" r="12"/>
   <circle class="fil32" cx="15671" cy="6555" r="40"/>
   <circle class="fil32" cx="15536" cy="6705" r="28"/>
   <circle class="fil32" cx="15396" cy="6817" r="21"/>
   <circle class="fil32" cx="15267" cy="6928" r="17"/>
   <circle class="fil13" cx="15143" cy="7015" r="14"/>
   <circle class="fil53" cx="15662" cy="4204" r="119"/>
   <circle class="fil54" cx="15685" cy="4558" r="116"/>
   <circle class="fil55" cx="15652" cy="4905" r="91"/>
   <circle class="fil56" cx="15558" cy="5219" r="83"/>
   <circle class="fil57" cx="15449" cy="5545" r="83"/>
   <circle class="fil57" cx="15276" cy="5813" r="57"/>
   <circle class="fil32" cx="15104" cy="6040" r="45"/>
   <circle class="fil32" cx="14909" cy="6245" r="36"/>
   <circle class="fil32" cx="14707" cy="6390" r="30"/>
   <circle class="fil32" cx="14536" cy="6524" r="30"/>
   <circle class="fil32" cx="14353" cy="6629" r="21"/>
   <circle class="fil32" cx="14172" cy="6704" r="17"/>
   <circle class="fil32" cx="13994" cy="6763" r="15"/>
   <circle class="fil32" cx="13837" cy="6812" r="15"/>
   <circle class="fil32" cx="13681" cy="6844" r="10"/>
   <circle class="fil32" cx="13531" cy="6863" r="10"/>
   <circle class="fil58" cx="15088" cy="2394" r="119"/>
   <circle class="fil59" cx="15135" cy="2969" r="107"/>
   <circle class="fil60" cx="14947" cy="2749" r="96"/>
   <circle class="fil58" cx="14799" cy="2180" r="119"/>
   <circle class="fil61" cx="14539" cy="2034" r="111"/>
   <circle class="fil62" cx="14774" cy="2597" r="91"/>
   <circle class="fil63" cx="14599" cy="2476" r="79"/>
   <circle class="fil64" cx="14412" cy="2382" r="53"/>
   <circle class="fil65" cx="14269" cy="2298" r="36"/>
   <circle class="fil65" cx="14142" cy="2236" r="36"/>
   <circle class="fil65" cx="14013" cy="2208" r="24"/>
   <circle class="fil65" cx="13907" cy="2178" r="22"/>
   <circle class="fil65" cx="13799" cy="2151" r="20"/>
   <circle class="fil65" cx="13692" cy="2127" r="17"/>
   <circle class="fil65" cx="13599" cy="2116" r="14"/>
   <circle class="fil65" cx="13519" cy="2108" r="11"/>
   <circle class="fil61" cx="14292" cy="1927" r="99"/>
   <circle class="fil61" cx="14070" cy="1852" r="88"/>
   <circle class="fil61" cx="13852" cy="1793" r="75"/>
   <circle class="fil61" cx="13662" cy="1745" r="61"/>
   <circle class="fil61" cx="13468" cy="1727" r="54"/>
   <circle class="fil61" cx="13324" cy="1719" r="45"/>
   <circle class="fil61" cx="13187" cy="1726" r="37"/>
   <circle class="fil61" cx="13063" cy="1733" r="31"/>
   <circle class="fil61" cx="12933" cy="1752" r="26"/>
   <circle class="fil61" cx="12819" cy="1773" r="22"/>
   <circle class="fil61" cx="12715" cy="1794" r="22"/>
   <circle class="fil61" cx="12618" cy="1831" r="17"/>
   <circle class="fil0" cx="11878" cy="1355" r="55"/>
   <circle class="fil0" cx="11709" cy="1452" r="47"/>
   <circle class="fil0" cx="11574" cy="1559" r="39"/>
   <circle class="fil0" cx="11448" cy="1663" r="32"/>
   <circle class="fil0" cx="11322" cy="1751" r="27"/>
   <circle class="fil0" cx="11234" cy="1861" r="23"/>
   <circle class="fil0" cx="11142" cy="1953" r="20"/>
   <circle class="fil0" cx="11087" cy="2025" r="16"/>
   <circle class="fil0" cx="10909" cy="1547" r="59"/>
   <circle class="fil1" cx="10756" cy="1727" r="56"/>
   <circle class="fil0" cx="10632" cy="1873" r="45"/>
   <circle class="fil0" cx="10545" cy="2010" r="22"/>
   <circle class="fil0" cx="10451" cy="2146" r="22"/>
   <circle class="fil13" cx="10382" cy="2281" r="22"/>
   <circle class="fil13" cx="10325" cy="2360" r="18"/>
   <circle class="fil13" cx="10287" cy="2448" r="18"/>
   <circle class="fil13" cx="10229" cy="2538" r="18"/>
   <circle class="fil13" cx="10195" cy="2619" r="18"/>
   <circle class="fil13" cx="10157" cy="2703" r="18"/>
   <circle class="fil13" cx="10130" cy="2769" r="18"/>
   <path class="fil66" d="M3252 4606l0 59 -959 0 0 -59c101,-20 168,-49 203,-89 35,-40 53,-113 53,-219l0 -1565 -206 0c-124,0 -222,27 -294,80 -73,54 -126,139 -162,256l-59 0 21 -494 59 0c45,28 112,42 203,42l1327 0c93,0 160,-14 203,-42l59 0 21 494 -59 0c-36,-117 -89,-202 -162,-256 -72,-53 -170,-80 -294,-80l-206 0 0 1568c0,100 18,172 53,215 36,42 102,73 199,90zm1708 -347l60 0c-60,142 -152,254 -279,336 -127,82 -269,123 -428,123 -206,0 -378,-67 -515,-201 -137,-134 -206,-302 -206,-503 0,-205 70,-377 211,-514 141,-138 316,-207 524,-207 188,0 345,54 469,162 125,108 200,252 224,433l-999 0c-2,18 -2,36 -2,55 0,178 45,324 135,436 89,111 201,167 334,167 190,0 348,-96 472,-287zm-941 -451l574 0c-8,-125 -39,-226 -94,-304 -55,-77 -122,-116 -202,-116 -79,0 -145,37 -195,114 -49,76 -77,178 -83,306zm2129 1886l0 -59c95,-10 163,-33 204,-71 41,-38 62,-103 62,-194l0 -827c-115,67 -210,112 -284,137 -74,25 -153,38 -237,38 -196,0 -352,-62 -468,-186 -116,-125 -174,-289 -174,-494 0,-223 80,-403 240,-540 160,-137 386,-205 679,-205 179,0 392,18 639,53l0 2044c0,80 14,136 40,168 26,32 81,57 167,77l0 59 -868 0zm266 -1246l0 -1015c-82,-30 -155,-45 -221,-45 -162,0 -286,53 -373,158 -87,106 -131,258 -131,455 0,173 36,308 109,404 73,96 176,145 308,145 96,0 198,-34 308,-102zm1399 -1102l294 0 0 108 -294 0 0 851c0,113 15,186 44,220 29,33 105,60 229,81l0 59 -920 0 0 -59c99,-14 166,-39 200,-76 35,-36 52,-110 52,-222l0 -854 -210 0 0 -49c77,-17 133,-46 168,-87 35,-41 56,-122 63,-240 7,-123 24,-217 53,-283 29,-66 70,-123 123,-173 107,-101 276,-152 507,-152 195,0 353,49 475,146l-280 341 -59 0c1,-17 1,-34 1,-51 0,-101 -22,-184 -67,-247 -46,-63 -100,-94 -164,-94 -143,0 -215,129 -215,388l0 393zm2167 658c0,203 -76,372 -227,509 -152,136 -351,205 -598,205 -246,0 -446,-69 -599,-205 -152,-135 -228,-306 -228,-509 0,-127 35,-247 105,-361 70,-114 167,-201 290,-260 123,-60 267,-90 432,-90 248,0 448,68 598,205 152,137 227,305 227,506zm-438 0c0,-195 -33,-348 -100,-455 -67,-108 -163,-161 -287,-161 -127,0 -224,55 -290,165 -67,111 -100,269 -100,476 0,180 35,325 106,433 70,107 165,161 284,161 122,0 217,-54 285,-163 68,-109 102,-261 102,-456zm2076 -711l28 480 -60 0c-126,-266 -288,-399 -487,-399 -136,0 -242,51 -320,156 -78,104 -117,247 -117,428 0,186 43,331 130,437 86,106 205,158 357,158 100,0 183,-17 250,-53 67,-36 139,-100 215,-192l70 0c-131,273 -368,410 -712,410 -223,0 -403,-63 -541,-190 -137,-127 -206,-292 -206,-497 0,-209 76,-385 227,-526 151,-141 340,-212 566,-212 75,0 162,7 261,22 86,13 144,20 175,20 36,0 70,-14 104,-42l60 0zm1387 1103l-7 0c-142,214 -317,322 -525,322 -137,0 -244,-36 -322,-107 -77,-71 -116,-170 -116,-296l0 -682c0,-73 -15,-126 -44,-159 -30,-32 -84,-56 -163,-69l0 -59 544 -53 59 0 0 974c0,73 21,129 64,169 43,41 104,61 182,61 67,0 124,-17 171,-52 47,-34 99,-97 157,-186l0 -659c0,-106 -69,-171 -207,-195l0 -59 543 -53 59 0 0 1051c0,88 13,148 39,181 25,32 81,59 168,81l0 59 -602 53 0 -322zm847 322l0 -511 59 0c132,277 291,416 479,416 64,0 119,-19 166,-56 46,-38 69,-83 69,-135 0,-57 -21,-106 -63,-148 -43,-42 -135,-89 -275,-143 -179,-68 -298,-135 -354,-201 -57,-66 -85,-146 -85,-242 0,-114 43,-210 129,-288 86,-78 197,-117 333,-117 50,0 137,9 262,29 49,6 78,10 88,10 21,0 47,-13 81,-39l59 0 0 413 -59 0c-40,-100 -96,-178 -168,-234 -71,-56 -151,-84 -238,-84 -63,0 -116,14 -158,42 -42,28 -63,63 -63,105 0,42 18,78 53,110 35,31 113,70 237,116 190,73 317,147 381,222 64,75 96,168 96,278 0,128 -49,236 -147,324 -97,88 -207,133 -330,133 -73,0 -146,-8 -218,-23 -72,-15 -124,-23 -154,-23 -52,0 -92,15 -121,46l-59 0z"/>
  </g>
 </g>
</svg>
